/* XPM */
static char * coins_anim_xpm[] = {
"256 32 7 1",
" 	c #5068D0",
".	c #6880D0",
"+	c #2E2533",
"@	c #C4B59F",
"#	c #9294A7",
"$	c #E5E6C7",
"%	c #322125",
"       .               .               .               .               .               .               .      ++++     .               .     +++++     .               .               .               .               .               .               .        ",
"        .               .               .               .               .      ++++     .               .   ++@@@@++    .               .   +@@@@@++    .               .     +++       .               .               .               .               .       ",
"        .               .               .     ++++      .               .   +++@@@@+    .               . ++@@@@@@@@++  .               .  +@@@@@@@@+   .               .   ++@@@++     .               .     ++++      .               .               .       ",
"         .    ++++       .               .   +@@@@+++    .               . +@@@@@@@@+    .               +@@@@@@@@@@@#+  .               .+@@@@@@@@@@+   .               .++@@@@@@@+     .               .  ++@@@@+      .               .    ++++       .      ",
"         .   +@@@@+      .               .  +$@@@@@##+   .               .+@@@@@@####+   .              +@@@#$$$$###@##+ .               +@@@@@@@$@@@@+  .               +#####@@@@@+    .               . +$$@@@@@+     .               .   +@@@@+      .      ",
"          .  +@@@@#+      .               .+$$$$$####+    .              +@@@@@#######+   .             +@@#$$$$#######+  .             +@@@@@@@$$$@@##+  .              +######@@@@@+    .               +$$$@@$$$+      .               .  +@@@@+       .     ",
"           .+$$$$$#+       ..              +$$$$$#####+    ..           +@@@@##########+   ..           +@#$$$$########+   ..           +@@@#@@$$$$$###+   ..           +###+####@@@@+     ..             +$$$$$$$$$+      ..              ..+$$$$+        ..   ",
"            +$$$$$++         ..           +$$$$$##++##+      ..         +@@@#######+####+    ..        +$#$$$$##########+    ..        +@@@#@@$$$$$$@###+    ..         +##+######@@@@+      ..           +$+$$$$$$$+        ..              +$$$$+          .. ",
"            +$$$$$++           .          +$$$$####+##+        .        +$@@########+###+      .       +$$$$$###########+      .       +@@@#@$$$$$$@@###+      .        +##+######@@#$+        .          +$+$$$$$$$+          .             +$$$$+            .",
".           +$$$$$++            .         +$$$$####+##+         .      +$$$#########+###+       .      +#$$$@###########+       .      +@@@#$$$$$$@@@@##+       .       +##+########$$$+        .         +$+$$$$$$$+           .            +$$$$+             ",
".           +$$$$#++            .        +@@$$$####@##+         .      +$$$#########+###+       .      +$$$#############+       .      +@@@+$$$$$@@#@@##+       .       +##+#######$$$$+        .         +$+$$$@@@@@+          .            +$$$$+             ",
" .          +$$$$#@+             .       +@@@@#####$##+          .     +$$##########+##+         .      +$#############+         .      +@$+#$$$@@@@@@#+         .       +##+#####$$$$$+         .        +$#$$$@####+           .           +$$$$+             ",
" .          +$$$$#$+             .       +##@@#####$#+           .      +$#########+@##+         .      +###+##########+         .      +$$$@#$@@@#@@@#+         .       +#######$$$$$#+         .         +$$$$$####+           .           +$$$$+             ",
"  .         +#$$$#$+              .      +@@@#####$$#+            .     +$###+####+@##+           .      +###++#######+           .      +$$$$@###@@@@+           .       +#####$$$$$##+          .        +$$$$$####+            .          +####+             ",
"   ..       +#####$+.              ..    +@@@@###+$##+             ..    ++###+++@####+            ..    +############+            ..     +$$@@@@@@@@+             ..     +####++$$$##+            ..      +$$$$$####+             ..        +####+..           ",
"     ..     +@@@@##+ ..              ..  +@@@@##+@##+..              ..   +##########+.              ..   ++########++.              ..    +@@@@@@@@+..              ..    +##$$$$$###+              ..     +$#$$####+.              ..      +@@@@+  ..         ",
"       .    +@@@@##+   .               .  +@@@#####+   .               .   +#######++  .               .    ++####++   .               .    +++@@@++   .               .    +$$$$$##++ .               .    +$$$$####+ .               .     +@@@@+    .        ",
"        .   +@@@@##+    .               .  +#######+    .               .   ++###++     .               .     ++++      .               .      +++      .               .    ++$$#++    .               .    +$$####+   .               .    +@@@@+     .       ",
"        .   +@@@@#+     .               .   +++##++     .               .     +++       .               .               .               .               .               .      +++      .               .    +$$#+++    .               .    +@@@@+     .       ",
"         .   ++###+      .               .     ++        .               .               .               .               .               .               .               .               .               .    +++        .               .   +####+      .      ",
"         .     +++       .               .               .               .               .               .               .               .               .               .               .               .               .               .    ++++       .      ",
"          .               .               .               .               .               .               .               .               .               .               .               .               .               .               .               .     ",
"           ..              ..              ..              ..              ..              ..              ..              ..              ..              ..              ..              ..              ..              ..              ..              ..   ",
"             ..              ..              ..              ..              ..              ..              ..              ..              ..              ..              ..              ..              ..              ..              ..              .. ",
"               .               .               .               .               .               .               .               .               .               .               .               .               .               .               .               .",
".               .               .               .               .               .               .               .               .               .               .               .               .               .               .               .               ",
".            %%%%%%             .            %%%%%%             .             %%%%              .             %%%%              .             %%%%              .             %%%%              .            %%%%%%             .            %%%%%%             ",
" .         %%%%%%%%%%            .         %%%%%%%%%%            .         %%%%%%%%%%            .          %%%%%%%%             .          %%%%%%%%             .         %%%%%%%%%%            .         %%%%%%%%%%            .         %%%%%%%%%%           ",
" .        %%%%%%%%%%%%           .         %%%%%%%%%%            .         %%%%%%%%%%            .         %%%%%%%%%%            .         %%%%%%%%%%            .         %%%%%%%%%%            .         %%%%%%%%%%            .        %%%%%%%%%%%%          ",
"  .        %%%%%%%%%%             .        %%%%%%%%%%             .        %%%%%%%%%%             .         %%%%%%%%              .         %%%%%%%%              .        %%%%%%%%%%             .        %%%%%%%%%%             .        %%%%%%%%%%           ",
"   ..        %%%%%%..              ..        %%%%%%..              ..         %%%% ..              ..         %%%% ..              ..         %%%% ..              ..         %%%% ..              ..        %%%%%%..              ..        %%%%%%..           ",
"     ..              ..              ..              ..              ..              ..              ..              ..              ..              ..              ..              ..              ..              ..              ..              ..         "};
