/* XPM */
static char *_810999652e1429f99582bf9a877292dDnySADmQKda8XQDL[] = {
/* columns rows colors chars-per-pixel */
"128 32 8 1 ",
"  c #282828",
". c #004080",
"X c #4850D0",
"o c #5068D0",
"O c #6880D0",
"+ c #7890F8",
"@ c #88D0F8",
"# c #F8F8F8",
/* pixels */
"oooooooOoooooooooooooooOoooooooooooooooOoooooooooooooooOoooooooooooooooOoooooooooooooooOoooooooooooooooOoooooooooooooooOoooooooo",
"ooooooooOoooooooooooooooOoooooooooooooooOoooooooooooooooOoooooooooooooooOooo@@@@++ooooooOoooooooooooooooOoooooooooooooooOooooooo",
"ooooooooOooooo++@@@@ooooOoooooooooooooooOoooo####+++ooooOooooooooooooooo+@@ooo++@@++ooooOoooooooooooooooOoooooooooooooooOooooooo",
"oooooooooOoo++@@++ooo@@+oOooooooooooooooo++###++++..++##oOoooooooooooo+@+..++ooo++@++o+o@OoooooooooooooooOoo+++####ooooooOoooooo",
"ooooooo@o+o++@++ooo++..+@+oooooooooooooooOooooo+++++..@@#Oooooooooooo+++...####+...++++o+Ooooooooooooooo##++..++++###++ooOoooooo",
"oooooo@+o++++...+####...+++ooooooooooo@@+oO@@@+@@+++++..@#Oooooooooo+@#.+++..@+.###..@+o.oOoooooooooooo#@@..+++++oooooooooOooooo",
"ooooo@+.++@..###.+@..+++.#@+Ooooooooo@++.@@+++++###++.++.@#OOooooooo@#.++++++@@+++@#+@o+oo@OOooooooooo#@..+++++@@+@@@oo+@@oOOooo",
"ooooo@.@++@+#@+++@@++++++.#@oOOooooo@+#.++++##++++###+.@+ooooOOoooo@#.++@..###+++#+@++@+oo+ooOOoooooo#@.++.++###+++++@@.++@ooOOo",
"ooooo+.++@++@+#+++###..@++.#@ooOooo@+#.@.###@..@@@@####.@++ooooOooo@#+@@@##++++####.+o@oo+oooooOooooooo+@.+###++++##++++.#+@oooO",
"Oooo+.+++@@+.####++++##@@@+#@oooOoo+#.+@###@@+@@@@@+####@++oooooOooo@+@@##.++#####@#o.ooo+.oooooOoooo++@.####@@@@..@###.@.#+@ooo",
"Oooo+.++@+.+#@#####++.##@@+@ooooOoo+#.@######@@##++##@###++oooooOooo@@+##.++#@@##@++o+oo@o@o+oooOoooo++@####+@@@@@+@@###@+.#+ooo",
"oOo++@.@+.+@++@##@@#++.##+@@oooooO@+++###+#####++#@+@#@##@o+oooooOoo@@@##.+@###@##+oo@.+o.o+oooooOooo++###@##++##@@######@.#+ooo",
"oOo++@.@+.@+++##@###@+.##@@@oooooO@++@##+###@###++@#@@@###o+o@oooOooo@##.++@####@+@oo@+#o.+ooooooOoo+o@##@#@+@#++#####+###+++@oo",
"ooO@++.@#+@+@@+@####@++.##@ooooooo@.+##@+##@###X#++##@#@##ooo@ooooOo@@##.+#+@#+++@+@oo#+#o+o@ooooo@o+o###@@@#@++###@###+##@++@oo",
"ooo@+++#+#+@@+@+++#@+#+.##@@oooooo@.+##@+#+@+#X  X++###@##ooooooooo@+###.+#+@#X  X##Ooo@o#o@@ooooo@OOo##@#@##++#X###@##+@##+.@oo",
"ooo@@+##@@+@##X  X#@+#+.###+@oooooo@+##@.##@+#    X##@+@##+@ooooooo@+##@.##@+#    X##O+@##o@oooooooooO##@###++X  X#+@+#+@##+.@oo",
"oooo@+##@+@##X    #+@##.@##+@oooooo@+###.+#+@#X  X##@+@@##+@@ooooo@.+##@+#+@+#X  X++#o#@#ooooooooooo@+##@+@##X    #+@##.@##+@ooo",
"oooooo##@###++X  X#+@+#+@##+.@oooooo@@##.+#+@#+++@+@@+#+#+++@ooooo@.+##@+##@###X#++##@#@##ooooooooo@@+##@@+@##X  X#@+#+.###+@ooo",
"oo@ooo##@#@##++#X###@##+@##+.@ooooooo@##.++@####@+@@+@+#@.++@ooooo@++@##+###@###++@#@@@###o+ooooooo@+++#+#+@@+@+++#@+#+.##@@oooo",
"oo@o+o###@@@#@++###@###+##@++@oooooo@@@##.+@###@##+++@.+@.@++ooooo@+++###+#####++#@+o#@##@o+ooooooo@++.@#+@+@@+@####@++.##@ooooo",
"oooo+o@##@#@+@#++#####+###+++@oooooo@@+##.++#@@##@++@+.+@.@++oooooo+#.@######@@##++#o@###++oooooooo++@.@+.@+++##@###@+.##@@@oooo",
"ooooo++###@##++##@@######@.#+ooooooo@+@@##.++#####@#+.+@++.+ooooooo+#.+@###@@+@@@@@+#oo#@++oooooooo++@.@+.+@++@##@@#++.##+@@oooo",
"ooooo++@####+@@@@@+@@###@+.#+oooooo@#+@@@##++++####.+@@+++.+Ooooooo@+#.@.###@..@@@@##oo.@++OOooooooo+.++@+.+#@#####++.##@@+@Oooo",
"ooooo++@.####@@@@..@###.@.#+@OOoooo@#.++@..###+++#+@++@++.+ooOOooooo@+#.++++##++++###oo@+ooooOOooooo+.+++@@+.####++++##@@@+#@OOo",
"ooooooo+@.+###++++##++++.#+@oooOoooo@#.++++++@@+++@#+@++@.@ooooOooooo@++.@@+++++###++.+o.@oooooOooooo+.++@++@+#+++###..@++.#@ooO",
"Ooooo#@.++.++###+++++@@.++@oooooOooo+@#.+++..@+.###..@++.+@oooooOooooo@@+oo@@@+@@+++++..ooooooooOoooo@.@++@+#@+++@@++++++.#@oooo",
"Oooooo#@..+++++@@+@@@oo+@@ooooooOoooo+++...####+...++++o+@ooooooOoooooooooooooo+++++..@@#oooooooOoooo@+.++@..###.+@..+++.#@+oooo",
"oOooooo#@@..+++++OoooooooooooooooOoooo+@+..++ooo++@++o+o@ooooooooOooooooo++###++++..++##oooooooooOoooo@+o++++...+####...+++ooooo",
"oOoooooo##++..++++###++ooooooooooOoooooo+@@ooo++@@++oooooooooooooOooooooooooo####+++oooooooooooooOooooo@o+o++@++oOo++..+@+oooooo",
"ooOooooooooo+++####oooooooooooooooOooooooooo@@@@++OoooooooooooooooOoooooooooooooooOoooooooooooooooOooooooooo++@@++Ooo@@+oooooooo",
"oooOOooooooooooooooOOooooooooooooooOOooooooooooooooOOooooooooooooooOOooooooooooooooOOooooooooooooooOOooooooooo++@@@@Oooooooooooo",
"oooooOOooooooooooooooOOooooooooooooooOOooooooooooooooOOooooooooooooooOOooooooooooooooOOooooooooooooooOOooooooooooooooOOooooooooo"
};
