/* XPM */
static char * number_xpm[] = {
"320 32 9 1",
" 	c #000000",
".	c #5068D0",
"+	c #6880D0",
"@	c #1F1F1F",
"#	c #9F9F9F",
"$	c #BFBFBF",
"%	c #5F5F5F",
"&	c #3F3F3F",
"*	c #7F7F7F",
" . . . +                 . . . . . . . + . . @       @ + . . . . . . . #                 . . . . . . . $               % . . .  . . . . . . . $           . . . . . @                     & . . . . . . @                 . . . . . . . . . . $ &         * . . . . . $                     * . . . . . %               . . . ..",
". . . .                   . . . . . . . + . @         . + . . . . . . %                 & . . . . . . .                 $ . . .  . . . . . . .           $ . . . . #                       . . . . . . &                   . . . . . $ % & @               % . . . . $                       . . . . . $                 . . . .",
" .. . .                   . .  . .. . . + .           $ + . .  . .. .                     . .  . .. . @                 % . .   .. . . . . . @           . .  . .. *                       $  . .. . .                     .  . .. &                          . .. . @           @ %          . .. . . @                 . .  ..",
".  . . &                   . .. .  . . . +             . + . .. .  .                     # . .. .  . *                   + . ..   . . . . . &             . .. .  .                         .. .  . . @                   @ .. .                            @. .  . %           # . &        # .  . . #         .       & . .. .",
" ..  .         $           ..  . ..  . . +             . + ..  . ..                      # ..  . ..            . &       + ..   ..  . . . .             @ ..  . ..                        %.  . ..  .           *         @.  . .#                            . ..            & . . &         . ..  . @       * . @       ..  ..",
".  .. *       * .            .. .  .. . .             * . +  .. .               #         +  .. .  .$       @ . .       @ +  ..   .. . . .               .  .. .  .%                     %  .. .  .. %         . .          .. .                             $ .  .%         & . . .         . .  .. .       & . .       #  .. .",
" ..  .@       . .          $+  . ..  .. .             % .  ++  . .            . .          ++  . ..         + . .       &  ++   ..  .. . $                .+  . ..                     %  .+  . ..  .        * . .        @+  . ..                            . ..           . . . *          . ..  .*       . . .        .+  ..",
".  ..        & . $           ++ .  ..  . %             . ..  ++ .            + . *       ..  ++ .  .$      # + . %       ..  ++   ..  . .               &.  .+ .  .%            * $ . . ..  .+ .  ..          + . @         .+ .  .$                        &+ .  .         * + . .         .+ .  ..        * + .        %  .+ .",
" ..  #       # + .         #.  + ..  ..                ..  ..  + &         & . + &      @  ..  + ..  @     . . +        .  ..   ..  ..  &       %         ..  . ..            # . . . ..  ..  . ..  *       & . .         $.  . ..  $@        %               . ..          . . . @        $  . ..  .@      . . .         ..  .+",
"+  ..         . + &          .. +  ..  .$             &  ..  .. +           . . $        ..  .. +  ..     . . .          ..  ..   ..  .#       & $      &.  .. .  .%         % . . . .  ..  .. .  ..         . . . * @   #  .. .  ..  *& & # . .            .. .  $          . . @          .. .  ..       & . . @       @  .. .",
" ..  &        . + %        #.  . ..  ..                ..  ..  . $        % . . &       .  ..  . ..  ..  .. . %        $.  ..   +.  ..         . *        ..  . +.           * . . .  ..  ..  . +.  &        . . . .  .$  ..  . +.  ..  .. . . .           .  . +.           . %          ..  . +.  .      # . .          ..  ..",
".  ..        . . +           .. .  ..  ..             @  ..  .. .          . . #         ..  .. .  ..  ..  . @        %  ..  ..   ..  &       $ .       &.  .. .  .%          # & % ..  ..  .. .  ..        # . . . ..  ..  .. .  ..  ..  . . .             .. .  .*                     $  .. .  ..        . . @           .. .",
" +.          . . +         #.  . +.  ..  .#            ..  ..  . +.      #.  .         ..  ..  . +.  ..  ..            ..  ..   .+  .*        . .         ..  . .+                    ..  ..  . .+          & & @     *.  ..  . .+  ..  ..  . .           #.  . .+  %                     ..  . .+  .       . .           ..  ..",
".  .$       % . . #          .. .  ..  ..  .. *       @  ..  .. .  ..  %#  .. &       $  ..  .. .  ..  ..             .  ..  ..   +.         . .         *  .. .  +#                    ..  .. .  +.                    ..  .. .  +.  ..  .. .              .. .  +.                     $  .. .  +.       . .              .. .",
" ..          .. .          $.  . ..  ..  ..  ..        ..  ..  . ..  ..  ..  *         ..  ..  . ..  ..  .@            ..  ..   ..  @       *. .              . ..                     &  ..  . ..                        ..  . ..  +.  ..  ..            ..  . ..  +.                    ..  . ..  +%      $%            ..  ..",
".  .%       %  . .$          .. .  ..  ..  ..         @  ..  .. .  ..  ..  .$        ++  ..  .. .  ..  ..                ..  ..   .%          .                .  ..                    *.  .. .  ..                     #  .. .  ..  +.  ..  *          *  .. .  ..  +.                    .. .  ..                        .. .",
" ..          .. .          ..  . ..  ..  ..  ..        +.  ..  . ..  ..  ..         $  +.  ..  . ..  ..  *              $  ..   ..          *.                @ ..  *                     ..  . ..                &@      ..  . ..  ..  ..  ..            ..  . ..  ..                     #  . ..  ..                    ..  ..",
".  .&       *  . .#       @  .. .  ..  .+  ..         @  ..  .. .  ..  .+  @         ..  ..  .. .  ..  .+                ..  ..   @                            .  ..          @          #  .. .  ..            &.  @       .. .  ..  ..  ..            @.  .. .  ..  &                     .. .  ..  *                     .. .",
" ..          . . .         ..  . ..  ..  ..  .         .+  ..  . ..  ..  .%        ..  .+  ..  . ..  ..  .                 ..   .*                              ..  ..      . . *         ..  . ..  @           . ..      ..  . ..  ..  +.  .             ..  . ..  .%            *.          . ..  ..                    ..  ..",
".  .        & . . *       *  .. .  ..  ..  .. $          +.  .. .  ..  ..         #  ..  +.  .. .  ..  ..  @@ # .        +.  ..                                .  ..  ..  .. . . &       &  .. .  ..           . .  %       .. .  ..  ..  ..            $+  .. .  ..             .  ..      *. .  ..  ..                    .. .",
" ..         & . . %        ..  . ..  ..  +. . #        ..  ..  . ..  ..           . .  ..  ..  . ..  ..  +. . . . %        ..   $                             $ ..  ..  .+ . . . *        ..  . ..  *          . . .      $.  . ..  ..  .+ .           @  ..  . ..  @          & . .          . ..  ..  .&       %        ..  ..",
".  .         . . .        +  .. .  ..  ..  . .           .+  .. .  ..  .@        # . ..  .+  .. .  ..  ..  . . . .       .+  ..                              * .  ..  ..  + . . .        &  .. .  ..          . . . &       .. .  ..  ..  + &           ..  .. .  .%          @ . . .$      %. .  ..  ..  $ & % . *      @  .. .",
" ..          . . .         ++  . ..  ..  . + .         ..  ++  . ..  ..          . . . ..  ++  . ..  ..  . + . . .      @  ++   #                          &  . ..  ..  . . + . .         .+  . ..  .         . . .       .+  . ..  ..  . .            $  .+  . ..            $ . . .         . ..  ..  % $ + . . @       .+  ..",
".  .          + .        *.  ++ .  ..  .. . . #          ..  ++ .  ..           % . . .  ..  ++ .  ..  .. . . + .        ..  ++                          *  .+ .  ..  .. . . + .         $  .+ .  ..         + . . %     @  .+ .  ..  .. . *            ..  .+ .  *          & . . .        .+ .  ..  &    % + . .       &  .+ .",
" ..           . .          ..  + ..  .. . . . #         .  ..  + ..  #          * $ $ . .  ..  + ..  .. . . . . #       $  ..   .&                        ..  . ..  .. . . . . +          ..  . ..  .*       . + .        ..  . ..  .. . . @           .  ..  . ..           * + . .       *  . ..  .$       . + #        ..  .+",
"+  .@        & . @       ..  .. +  ..  . . . .         # ..  .. +  ..                  & ..  .. +  ..      % # &       @ ..  ..   &     @ * . &         $.  .. .  ..  % . . . .         #.  .. .  ..          . + %      #  .. .  ..  . . $           $ ..  .. .              . + .         .. .  ..          . +        *  .. .",
" ..            .         . ..  . ..  . . . . .         * . ..  . ..                      . ..  . ..  &                 # . ..   +.  # # . . . .         $ ..  . +.      * . . *         . ..  . +.  . &       . +         ..  . +.  . . . %           . . ..  . +$            . + %       ..  . +.  .         . +         ..  ..",
".  .*         & %       . .  .. .  .. . . . . #         . .  .. .  $                      .  .. .  ..                 & . .  ..   .. . . . . .           .  .. .  .@     & . %         $ .  .. .  .. .       % .         .  .. .  .. . . .           * . .  .. .             @ $ @       $  .. .  .. #       @ .         .  .. .",
" +. .                   . . .  . +. . . . . . #         . . .  . +.                       . .  . +. .                 . . . .   .+ . . . . . .           . .  . .+ *                   . . .  . .+ . . @                 . .  . .+ . . . #           . . . .  . .+                       . .  . .+ . .         &         . .  ..",
".  . %                 . . . .. .  . . . . . .         @ . . .. .  @                     . . .. .  . &               * . . . ..   + . . . . . .         . . .. .  + &                 . . . .. .  + . .                 . . .. .  + . . .           & . . . .. .  @                   @ . . .. .  + . %                 * . .. .",
" . + .                 . . . . . . + . . . . .           . . . . . @                   * . . . . . + $               . . . . .  . . + . . . . .         . . . . . . +                 . . . . . . . + . &             & . . . . . . + . .           # . . . . . . *                   . . . . . . . + .                 . . . ..",
". . . $               + . . . . . . . + . . . .         . . . . . .                 @ + . . . . . . . *             . + . . . .  . . + . . . . .         . . . . . . +               + . . . . . . . + . @           & . . . . . . . + .           @ + . . . . . . @               % + . . . . . . . + $               # . . . ."};
