/* XPM */
static char *boat_left1654613756[] = {
/* columns rows colors chars-per-pixel */
"32 32 11 1 ",
"  c #140C1C",
". c #442434",
"X c #4E4A4E",
"o c #854C30",
"O c #D27D2C",
"+ c #D04648",
"@ c #5068D0",
"# c #6880D0",
"$ c #6DC2CA",
"% c #D2AA99",
"& c #DEEED6",
/* pixels */
"@@@@@@@#@@@@@@@@@@@@@@@#@@@@@@@@",
"@@@@@@@@#@@@@@@@@@@@@@@@#@@@@@@@",
"@@@@@@@@#@@@@@@@@@@@@@@@#@@@@@@@",
"@@@@@@@@@#@@@@@@@@@@@@@@@#@@@@@@",
"@@@@@@@@@#@@@@@@@@@@@@@@@#@@@@@@",
"@@@@@@@@@@#@@@@@@@@@@@@@@@#@@@@@",
"@@@@@@@@@@@##@@@@@@@ooXX..@##@@@",
"@@@@@@@@@@@@@##@@@@@ooXX..@@@##@",
"@@@@++..  @@@@@#oooooooo......@#",
"#@@@++..  @@@@@@oooooooo......@@",
"oooooooooooo@@@@oo$$$$ooXX++..@@",
"oooooooooooo@@@@oo$$$$ooXX++..@@",
"oo%%%%%%%%%%oo@@ooOOOOooXXXX..@@",
"oo%%%%%%%%%%oo@@ooOOOOooXXXX..@@",
"..ooOOOOOOOOOOoooooooooo......  ",
"..ooOOOOOOOOOOoooooooooo......  ",
"@@..ooOOOOOOOO%%%%%%OOOOOOoooo  ",
"@@..ooOOOOOOOO%%%%%%OOOOOOoooo  ",
"@@@@..ooOOOOOOOOOOOOOOOOoooo  @@",
"@@@@..ooOOOOOOOOOOOOOOOOoooo  @@",
"@@@@&&....ooooooooooooXX    &&@@",
"@@@@&&....ooooooooooooXX    &&@@",
"@@@@@@$$$$&&&&$$$$$$&&$$$$$$#@@@",
"@@@@@@$$$$&&&&$$$$$$&&$$$$$$@##@",
"@@@@@@@@@@@@@@@#@@@@@@@@@@@@@@@#",
"#@@@@@@@@@@@@@@@#@@@@@@@@@@@@@@@",
"#@@@@@@@@@@@@@@@#@@@@@@@@@@@@@@@",
"@#@@@@@@@@@@@@@@@#@@@@@@@@@@@@@@",
"@#@@@@@@@@@@@@@@@#@@@@@@@@@@@@@@",
"@@#@@@@@@@@@@@@@@@#@@@@@@@@@@@@@",
"@@@##@@@@@@@@@@@@@@##@@@@@@@@@@@",
"@@@@@##@@@@@@@@@@@@@@##@@@@@@@@@"
};
