/* XPM */
static char *_73e0d90f6c5499aaace68eb5776c2a32qZvXBKJWP2kOE0L[] = {
/* columns rows colors chars-per-pixel */
"32 32 142 2 ",
"   c #040101",
".  c #0C0402",
"X  c #04030A",
"o  c #04090F",
"O  c #170902",
"+  c #040719",
"@  c #091111",
"#  c #131C1C",
"$  c #2A1503",
"%  c #311904",
"&  c #21211E",
"*  c #3F2112",
"=  c #070C23",
"-  c #2C1C25",
";  c #222C2A",
":  c #57301D",
">  c #663A11",
",  c #683C19",
"<  c #452534",
"1  c #482734",
"2  c #4A2A36",
"3  c #562F33",
"4  c #563033",
"5  c #683B24",
"6  c #643932",
"7  c #6D3D32",
"8  c #703F32",
"9  c #77442A",
"0  c #744233",
"q  c #7B4631",
"w  c #232F65",
"e  c #243067",
"r  c #303D67",
"t  c #294564",
"y  c #335D61",
"u  c #346267",
"i  c #765856",
"p  c #7C536E",
"a  c #7C5370",
"s  c #607876",
"d  c #834C1A",
"f  c #8B521A",
"g  c #9E5D1F",
"h  c #874D2F",
"j  c #9A592F",
"k  c #864C31",
"l  c #884E30",
"z  c #844D3A",
"x  c #885135",
"c  c #935632",
"v  c #A66221",
"b  c #AA642E",
"n  c #B56B2E",
"m  c #B86C2E",
"M  c #BD7027",
"N  c #BE702C",
"B  c #A66234",
"V  c #B86D33",
"C  c #C4742D",
"Z  c #CC792C",
"A  c #D27D2C",
"S  c #D27E31",
"D  c #824E4C",
"F  c #845947",
"G  c #945D42",
"H  c #986B4A",
"J  c #A07459",
"K  c #B47754",
"L  c #95746C",
"P  c #BE786F",
"I  c #D2823F",
"U  c #AB887D",
"Y  c #B88E7C",
"T  c #D28853",
"R  c #D28A59",
"E  c #C88861",
"W  c #D28D61",
"Q  c #D2916A",
"!  c #C89172",
"~  c #D29776",
"^  c #D29A7B",
"/  c #33438B",
"(  c #3E52A5",
")  c #73598F",
"_  c #7A658F",
"`  c #7A6590",
"'  c #475DBB",
"]  c #695EA7",
"[  c #695EA8",
"{  c #5F63BC",
"}  c #766EA6",
"|  c #6666B4",
" . c #4F67CE",
".. c #5367CD",
"X. c #5168CF",
"o. c #5475CF",
"O. c #5479CF",
"+. c #5068D0",
"@. c #586FD0",
"#. c #5A74D0",
"$. c #697FCE",
"%. c #815F8F",
"&. c #478187",
"*. c #638E8F",
"=. c #7D8C8B",
"-. c #6C949C",
";. c #579CA2",
":. c #7799A2",
">. c #71A3A3",
",. c #73B1B6",
"<. c #5782CF",
"1. c #5A8CCE",
"2. c #5D94CE",
"3. c #5F9ACD",
"4. c #6880CF",
"5. c #6297CA",
"6. c #709BCF",
"7. c #6880D0",
"8. c #5FA2C2",
"9. c #62A5CC",
"0. c #6BBDC6",
"q. c #67B3CB",
"w. c #68B4CB",
"e. c #6CBFCA",
"r. c #6DC1CA",
"t. c #85A09D",
"y. c #A4AAA2",
"u. c #B4BBAB",
"i. c #D2A28B",
"p. c #D2A591",
"a. c #D2A997",
"s. c #D2AA98",
"d. c #9BACD2",
"f. c #A6B9D3",
"g. c #91CDCD",
"h. c #A8D5CF",
"j. c #B5C5D4",
"k. c #BAD7D2",
"l. c #C7D5C0",
"z. c #CBDBD5",
"x. c #CCE6D4",
"c. c #DBECD6",
/* pixels */
"+.+.+.+.+.+.+.$.+.+.+.+.+.+.+.+.+.+.+.+.+.+.[ $.........+.+.+.+.",
"+.+.+.+.+.+.+.+.7.+.+.+.+.+.+.+.+.+.+.+...) D ) } D { ..+.+.+.+.",
"+.+.+.+.+.+.+.+.$.+.+.+.+.+.+.+. ...+.{ p z k V B h p ..+.+.+.+.",
"+.+.+.+.+.+.+.+.+.$.+.+.+.+.+.+. ...] i k j C A A j z ) X.+.+.+.",
"+.+.+.+.+.+.+.+.+.$.+.+.+.+.X.X...) z h b A A I A C k z [  .+.+.",
"+.+.+.+.+.O.3.+.+.+.7.+.+.+.+.{ p k h n A A Q a.T A m k z {  .+.",
"+.+.+.+.o.r.r.2.+.+.+.4.4.X.] z k j C A A ^ a.a.i.S A b k a  .+.",
"+.+.+.+.+.3.9.+.+.+.+.+.X._ z h b Z A T i.a.a.p.s.^ S A j k ` +.",
"+.+.+.+.+.9.2.+.+.+.+.{ p k k m A A Q s.s.i.T T s.s.Q A C l z } ",
"$.+.+.+.1.r.r.o.+.+.[ z h j C A A ! s.s.^ S A A Q s.s.T A m k z ",
"$. .+.+.+.9.<.+...) z h b Z A Z 0 i s.Q S A N A S ^ s.i.S A b k ",
" .$.+.@.5.r.O.{ a k h m A A A A 0 < G A A n h b A S i.s.^ S A j ",
"+.$.+.j.h.r.:.z k j C A A c b A b < < b A C h m A A K a.s.R S C ",
"+.+.d.c.c.t.k l b A A N 0 < 2 b k 8 < 1 C A Z A Z c 2 L ^ S A C ",
"+.+.+.k.g.,.z V A A b 1 < 0 C C k h 6 < 0 A A C 0 1 < 0 V A v $ ",
"+.+.d.c.g.,.J A A B < 1 c A A A n k k 3 < c b 1 1 4 q k h d $   ",
"+.+.j.c.u.x h m I M 3 U W A A A A b h q < < < < 6 k k 9 * O = ( ",
"+.+.#.y.k h b A A A E a.a.T A A A A j k 7 < < 8 k k 5 O   e ' +.",
"+.o.q.,.x m A A M A A ~ a.i.A I A A E k k 7 q z k : O X /  .+.+.",
"+.+.w.,.J A A b h v A I i.a.^ A A ^ s.Y k h h 9 % . = (  .+.+.+.",
"+.+.5.F l m j k h m A A T s.s.~ i.s.s.Q b h 5 . X r '  .+.+.+.+.",
"+.3.r.:.b A j j C A A Z A W s.s.s.i.T A Z , . X /  .$. .+.+.+.+.",
"X.1.r.=.m A Z Z A Z j j A I ^ s.^ S A M >   + (  .+. .$.$.+.+.+.",
"+.X.| x l Z A A m h h j Z A A W A A v O X w ' ..+.+.+.+.+.$.$. .",
"+.+.X.%.C A Z A b h b A A Z Z A Z f   + / +.+.+.+.+.+.+.+.+.+.$.",
"4.+.X...P M g A A n A A v % M M >   + ( +.+.+.+.+.+.+. .+.+.+.+.",
"4.+.+.X.| - & H , , S f   # s & o t  . .+.+.+.+.+.+.+.+.+.+.+.+.",
"+.4.+.+.+.( &.0.u y *.@ ; >.0.;.&.r.<.<.3.+.+.O.+.+.+.+.+.+.+.+.",
"+.7.+.+.+.+.9.r.9.0.e.-.l.x.e.z.h.r.8.r.r.3.q.q.+.+.+.+.+.+.+.+.",
"+.+.7.+.+.+.+.1.+.2.9.#.z.z.f.c.c.6.7.2.9.+.q.q.o.+.+.+.+.+.+.+.",
"+.+.+.7.7.+.+.+.+.+.+.+.7.@.@.f.6.+.+.7.7.+.o.+.+.+.+.+.+.+.+.+.",
"+.+.+.+.+.7.7.+.+.+.+.+.+.+.+.+.+.+.+.+.+.7.7.+.+.+.+.+.+.+.+.+."
};
