/* XPM */
static char *a2de7ea34a104960c3be8ead9883fa94ahHlVhEssKYWlFUi[] = {
/* columns rows colors chars-per-pixel */
"32 32 154 2 ",
"   c black",
".  c #02040F",
"X  c #1C0C05",
"o  c #121411",
"O  c #271303",
"+  c #341A0E",
"@  c #512D0A",
"#  c #56300C",
"$  c #472616",
"%  c #6C3E12",
"&  c #5F3520",
"*  c #442434",
"=  c #492734",
"-  c #512C34",
";  c #5A3233",
":  c #6E3E26",
">  c #643832",
",  c #6B3C32",
"<  c #7B4718",
"1  c #78442B",
"2  c #734132",
"3  c #7C4631",
"4  c #7F4932",
"5  c #141C42",
"6  c #172049",
"7  c #1E295A",
"8  c #202C5F",
"9  c #293672",
"0  c #2E585C",
"q  c #38686D",
"w  c #5D4045",
"e  c #7B4D40",
"r  c #7D536B",
"t  c #7A5477",
"y  c #79557C",
"u  c #7F7467",
"i  c #7F7B76",
"p  c #8C511A",
"a  c #995A1D",
"s  c #814A29",
"d  c #95562F",
"f  c #9A5A2F",
"g  c #854C30",
"h  c #894E30",
"j  c #844D3D",
"k  c #8D5231",
"l  c #925430",
"z  c #9A5A31",
"x  c #995C3C",
"c  c #A15E2F",
"v  c #A96422",
"b  c #A7622F",
"n  c #AC652E",
"m  c #B56B25",
"M  c #B86D26",
"N  c #B46A2E",
"B  c #BA6E2E",
"V  c #BD702D",
"C  c #A66430",
"Z  c #C4752C",
"A  c #C8772D",
"S  c #CD7A2C",
"D  c #D27D2C",
"F  c #83594F",
"G  c #814F55",
"H  c #825258",
"J  c #836254",
"K  c #8C6D5A",
"L  c #86776D",
"P  c #886174",
"I  c #A37562",
"U  c #C1796B",
"Y  c #D28038",
"T  c #A38177",
"R  c #D28447",
"E  c #D2864C",
"W  c #CA8455",
"Q  c #D28956",
"!  c #D28B5C",
"~  c #C78B69",
"^  c #D28E63",
"/  c #D2926B",
"(  c #D29572",
")  c #D29A7C",
"_  c #32438A",
"`  c #384A97",
"'  c #3E51A5",
"]  c #3F53A8",
"[  c #4B509A",
"{  c #765785",
"}  c #75588A",
"|  c #715A96",
" . c #4358B2",
".. c #475DBB",
"X. c #6B5EA4",
"o. c #675FAD",
"O. c #5D64BE",
"+. c #507CB8",
"@. c #6461B4",
"#. c #756CBF",
"$. c #4C63C5",
"%. c #4F66CC",
"&. c #5865C5",
"*. c #5467CB",
"=. c #5168CF",
"-. c #5374CF",
";. c #557BCF",
":. c #5068D0",
">. c #586FD0",
",. c #6C7CC6",
"<. c #53949A",
"1. c #589FA6",
"2. c #5490B0",
"3. c #5BA3AA",
"4. c #73ACB3",
"5. c #70B8BF",
"6. c #5782CF",
"7. c #5986CF",
"8. c #5A8BCD",
"9. c #5E96CE",
"0. c #619DCB",
"q. c #6880D0",
"w. c #788BD1",
"e. c #62A3CD",
"r. c #65ADCC",
"t. c #6CB9C5",
"y. c #67B2CB",
"u. c #6BBCCB",
"i. c #6DC2CA",
"p. c #76C4CB",
"a. c #8A8F89",
"s. c #90978E",
"d. c #B59184",
"f. c #AFBEAF",
"g. c #D29D81",
"h. c #CFA38F",
"j. c #D2A087",
"k. c #D2A28B",
"l. c #CEA695",
"z. c #D2A794",
"x. c #D2A997",
"c. c #D2AA99",
"v. c #AFCBBE",
"b. c #889CD1",
"n. c #89B0CF",
"m. c #9BABD2",
"M. c #A4B7D3",
"N. c #8BCBCC",
"B. c #A7D5CF",
"V. c #BCCCD4",
"C. c #BADDD1",
"Z. c #C6D8D4",
"A. c #CFE7D4",
"S. c #DDEED6",
/* pixels */
":.:.:.:.:.:.:.,.&.=.=.' %.=.:.:.:.:.:.:.:.:.:.,.:.:.:.:.:.:.:.:.",
":.:.:.:.:.:.:.*.H { [   7 ..:.:.:.:.:.:.:.:.:.:.q.:.:.:.:.:.:.:.",
":.:.:.:.:.:.:.{ g f M <     ] :.:.:.:.:.:.:.:.:.q.:.:.:.:.:.:.:.",
":.:.:.:.:.:.| g l S D D p     _ :.:.:.:.:.:.:.:.:.q.:.:.:.:.:.:.",
":.:.:.:.:.o.g g V D R D D s     9 $.:.:.:.:.:.:.:.q.:.:.:.:.:.:.",
":.:.:.:.O.j g N D R z.) N g 1 +   5  .:.:.:.:.:.:.:.q.6.;.:.:.:.",
":.:.:.:.r g b D D g.c.d.; 1 g s $     ` :.:.:.:.:.:.-.i.i.;.:.:.",
":.:.:.} g f D D ) c.h.e * = 2 s k &     _ %.:.:.:.:.:.r.r.q.,.:.",
":.:.X.g p A Y / x.x.Q Y k * * , g g : X   8 ..:.:.:.:.6.0.:.:.q.",
",.@.g g M Y E x.x./ Y Y D b * * ; g g 1 $   . ] :.:.:.y.i.9.:.:.",
"#.r g n Y Y k.x.) S Y m D D N ; * - 4 g s <     ` :.:.7.y.:.:.:.",
"{ g C D Y ) c.k.D S v p n D Y l * - g g n D v     9 %.:.y.7.:.:.",
"&.P S Y Q x.x.) D D Z d Z D N * * 3 g I ) D D m @   6 2.i.N.M.:.",
":.t m Y Y ^ x.z.j.R D D D M * * , h F l.c.k.R D S <     1.A.S.m.",
"O.g g C Y Y R ) c.c.^ Y D 2 * > g h A E k.c.z.^ D D a   1.B.Z.:.",
"%.X.j g f Z Y Y ) c.c.( k * ; s g B D D Y g.c.c./ D S K u.p.Z.w.",
"%.=.&.r g h V D D ( c.T * = 3 g b D D D D / x.x.! D m   0 v.S.Z.",
":.=.=.=.} g g n D D W - * n f f D D D D E c.c.( D D Z %   o f.w.",
":.:.:.:.:.X.g g c S D A n D S n D D D D k.c.) D D A D D p   3.0.",
":.:.:.:.=.=.@.G g l A D D D h * z D D ) c.k.D D n g N D D u i.u.",
":.:.:.:.:.:.:.&.y g g N D D n * * g ~ c.c.E D D n g g v v   q 8.",
":.:.:.:.:.:.:.:.=.| g g n D D B , * w d./ D S D D V g d M # <.u.",
":.:.:.:.:.:.:.:.:.:.o.h g f A D A g * z D S d b D D Z Z Y n 3.i.",
":.:.:.:.:.:.:.:.:.=.=.O.r g h V D D N D D Z h g f A D D Z O   +.",
":.:.:.:.:.:.:.:.:.:.:.:.=.{ g g N D D D D D A f s n D D D a _ q.",
",.:.:.:.:.:.:.:.:.:.:.:.:.:.X.g g c D B d Z D D n Y D V D U =.*.",
"q.:.:.:.:.:.:.:.:.:.:.:.:.:.:.@.F g K L g g N S d n N g x #.=.:.",
":.q.:.:.:.:.:.:.:.:.7.:.:.e.-.9.5.i 4.i.s.g g a.g i 4.J o.:.:.:.",
":.q.:.:.:.:.:.:.:.7.i.y.e.i.y.y.u.C.B.N.S.v.a.i.4.t.i.0.=.=.:.:.",
":.:.q.:.:.:.:.:.:.6.u.0.-.r.;.:.n.S.S.M.S.V.7.u.7.-.0.:.=.=.:.:.",
":.:.:.q.q.:.:.:.:.:.-.:.:.:.:.:.=.m.m.q.b.>.:.:.=.%.:.:.:.:.:.:.",
":.:.:.:.:.q.q.:.:.:.:.:.:.:.:.:.:.=.=.=.:.q.q.:.:.:.:.:.:.:.:.:."
};
