/* XPM */
static char *a7937d0f69104f23a0743ee49d4548d5SfWd8s3q4TXbb0Z0[] = {
/* columns rows colors chars-per-pixel */
"32 32 151 2 ",
"   c #000000",
".  c #0A0301",
"X  c #110602",
"o  c #160802",
"O  c #1C0C05",
"+  c #291409",
"@  c #4A2809",
"#  c #5C331F",
"$  c #673B10",
"%  c #5E3420",
"&  c #442434",
"*  c #492936",
"=  c #522D33",
"-  c #5E3636",
";  c #663932",
":  c #693B32",
">  c #754314",
",  c #734129",
"<  c #78442B",
"1  c #724133",
"2  c #7D4732",
"3  c #7F4831",
"4  c #1C2654",
"5  c #315D61",
"6  c #3E7277",
"7  c #7A4E42",
"8  c #785B58",
"9  c #7D536C",
"0  c #7B5474",
"q  c #7F5B70",
"w  c #79557C",
"e  c #8D521A",
"r  c #98591D",
"t  c #95562F",
"y  c #97582F",
"u  c #9C5B2F",
"i  c #854C30",
"p  c #8E5230",
"a  c #86533C",
"s  c #925531",
"d  c #975831",
"f  c #995A31",
"g  c #A25F2F",
"h  c #AC6522",
"j  c #A5612F",
"k  c #A9632E",
"l  c #B26924",
"z  c #B0672E",
"x  c #B46A2E",
"c  c #BA6E2E",
"v  c #BE712C",
"b  c #B16D3A",
"n  c #C4742D",
"m  c #C9772D",
"M  c #CD7A2C",
"N  c #D27D2C",
"B  c #D27F37",
"V  c #845A49",
"C  c #925F49",
"Z  c #916D52",
"A  c #A66654",
"S  c #BE765F",
"D  c #816D64",
"F  c #B16F62",
"G  c #D2813B",
"H  c #8D877E",
"J  c #B28775",
"K  c #CD824A",
"L  c #D28342",
"P  c #D28B5B",
"I  c #D28F64",
"U  c #CD916F",
"Y  c #D2926B",
"T  c #C58F73",
"R  c #D29572",
"E  c #D29B7D",
"W  c #2F3F83",
"Q  c #314185",
"!  c #33448B",
"~  c #364791",
"^  c #374895",
"/  c #384996",
"(  c #3D5C97",
")  c #775682",
"_  c #6F5B99",
"`  c #4651A1",
"'  c #4255AC",
"]  c #4357B1",
"[  c #5E5FB3",
"{  c #685FAA",
"}  c #4C67C4",
"|  c #5665C5",
" . c #5965C5",
".. c #5467CB",
"X. c #536ACD",
"o. c #5477CF",
"O. c #557CCF",
"+. c #5068D0",
"@. c #6F6BC3",
"#. c #6B7DC9",
"$. c #468086",
"%. c #4F8F95",
"&. c #54979E",
"*. c #7B9191",
"=. c #5B9DB9",
"-. c #60A1A6",
";. c #76A6AA",
":. c #7DA3B6",
">. c #74AEB4",
",. c #70B8BF",
"<. c #5783CF",
"1. c #5884CF",
"2. c #5A8BCE",
"3. c #5C93CE",
"4. c #5E99CD",
"5. c #6188C4",
"6. c #698BCF",
"7. c #6797CA",
"8. c #7299CF",
"9. c #6880D0",
"0. c #7689D1",
"q. c #63A5CD",
"w. c #65ADCC",
"e. c #6BABCC",
"r. c #66B2C4",
"t. c #67B1CC",
"y. c #69B6CB",
"u. c #6BBCCB",
"i. c #6DC2CA",
"p. c #859E9C",
"a. c #B99487",
"s. c #95A090",
"d. c #CB9980",
"f. c #D2A28A",
"g. c #CCA595",
"h. c #D2A996",
"j. c #D2AA99",
"k. c #8B9DD2",
"l. c #8CA5C8",
"z. c #94A5D2",
"x. c #A4B5D3",
"c. c #87CACC",
"v. c #9BD1CE",
"b. c #ABD7CF",
"n. c #AECDD2",
"m. c #B4C4D4",
"M. c #ACD7D0",
"N. c #B5DBD1",
"B. c #C4D4D4",
"V. c #D2E5D5",
"C. c #DEEED6",
/* pixels */
"+.+.+.+.+.+.+.#.X.+.+.+.+.+.+.+.+.+.+.+.+.+.+.9.+.+.+.+.+.+.+.+.",
"+.+.+.+.+.+.+.O.e.X.2.q.+.x.x.+.m.z.+.+.+.+.+.+.#.+.+.+.+.+.+.+.",
"+.+.+.+.+.+.} r.i.=.i.i.:.C.C.n.C.C.8.+.O.<.+.1.6.+.+.+.+.+.+.+.",
"+.+.+.+.+.| 4 5 -.  6 &.  s.b.i.N.v.i.4.y.u.4.u.u.6.+.+.+.+.+.+.",
"+.+.+.+.@.S $ > v @ e l     $.i.6 %.y.<.q.t.o.w.q.9.+.+.+.+.+.+.",
"+.+.+...F M M N N z m N l o   Z     ( +.+.+.+.+.+.+.9.+.+.+.+.+.",
"+.+.o.V i n N N n i y m N l l N h     / +.+.+.+.+.+.+.9.9.+.+.+.",
"+.+.y.*.f M N N N f i d M N N N N h     / +.+.+.+.+.+.+.+.O.#.+.",
"+.3.i.e.b N c c N N g i v N G E B N h     ^ +.+.+.+.+.+.+.+.+.#.",
"#.+.7.V i z i i c N M n N N d.j.f.G N h     ~ X.+.+.+.+.+.+.+.+.",
"#.1.u.;.j N z i i c N N N f C d.j.f.G N h     ~ +.+.+.+.+.+.+.+.",
"X.7.i.;.k N N z i c N N f i d K f.h.f.G N l     / +.+.+.+.+.+.+.",
"+.#.l.p i k N N n N N u i t M N L f.j.R N N l     ! +.+.+.+.+.+.",
"+.k.C.B.a i k N N N u i t m N N N L U N N M N l     ! +.+.+.+.+.",
"+.0.V.N.>.a c N N i : t m N N N N c p n f 1 m g ,     ! +.+.+.+.",
"+.+.x.c.i.H M N c & & d N N N N c i i J 8 & - 3 i , .   ~ +.+.+.",
"+.z.C.V.p.i u M N x & & f N N c i i J j.g.7 & = i i , X   Q +.+.",
"+.+.B.M.,.D i u M N z & & y c i i J j.j.I M 2 & = 2 i , o   Q +.",
"+.+.+.w.i.5.9 i f M N x & s x i J j.j.I N N M 3 & = 2 i , O   W ",
"+.+.+.+.4.X.| 9 i y M N n N N T j.j.I N M n N M 3 & = 2 i , O   ",
"+.+.+.w.i.2.+...0 i y M N N Y j.j.Y N N f i v N N : & = i i , ` ",
"+.+.+.q.i.1.+.+. .0 i y M N P j.j.E N N x y M N c & & : i i i 0 ",
"+.+.+.+.7.+.+.+.+...0 i t M N P j.j.E N N M N x & & : i i % < i ",
"+.+.+.y.i.2.+.+.+.X...0 i t m N P h.j.E N N c & & ; i i #   + [ ",
"+.+.+.4.y.o.+.+.+.+.+...0 i t m N P j.j.E c & & ; i i #     ] 9.",
"9.+.+.+.o.+.+.+.+.+.+.+...w i p m N P j.a.* & ; i i %     ] +.+.",
"9.+.+.+.+.+.+.+.+.+.+.+.+.+.w i s m N K - & i i i #     ' +.+.+.",
"+.9.+.+.+.+.+.+.+.+.+.+.+.+.+.w i s m N v d N v %     ' +.+.+.+.",
"+.9.+.+.+.+.+.+.+.+.+.+.+.+.+.X.w i t n N N N r     ' +.+.+.+.+.",
"+.+.9.+.+.+.+.+.+.+.+.+.+.+.+.+.+.) i p n N k +   ' +.+.+.+.+.+.",
"+.+.+.9.#.+.+.+.+.+.+.+.+.+.+.+.+.+.) i p A i < ' X.+.+.+.+.+.+.",
"+.+.+.+.+.#.#.+.+.+.+.+.+.+.+.+.+.+.+.) _ #.q { +.+.+.+.+.+.+.+."
};
