/* XPM */
static char *Ym9hdF9kb3duXzE_[] = {
/* columns rows colors chars-per-pixel */
"32 32 9 1 ",
"  c black",
". c #442434",
"X c #854C30",
"o c #D27D2C",
"O c #5068D0",
"+ c #6880D0",
"@ c #6DC2CA",
"# c #D2AA99",
"$ c #DEEED6",
/* pixels */
"OOOOOOO+OXXXXXXXXXXXXXX+OOOOOOOO",
"OOOOOOOO+XXXXXXXXXXXXXXO+OOOOOOO",
"OOOOOOOXXoooooooooooooo  OOOOOOO",
"OOOOOOOXXoooooooooooooo  +OOOOOO",
"OOOOOOOXXoo##########oo  +OOOOOO",
"OOOOOOOXXoo##########oo  O+OOOOO",
"OOOOOOOXXoo##oooooo..XX  OO++OOO",
"OOOOOOOXXoo##oooooo..XX  OOOO++O",
"OOOOOOOXXoo##ooXXoo..XX  OOOOOO+",
"+OOOOOOXXoo##ooXXoo..XX  OOOOOOO",
"+OOOOOOXXoo##oooooo..XX  OOOOOOO",
"O+OOOOOXXoo##oooooo..XX  OOOOOOO",
"O+OOOOOXXoo..........XX  OOOOOOO",
"OO+OOOOXXoo..........XX  OOOOOOO",
"OOO++OOXXooooXXXXXXXXXX  OOOOOOO",
"OOOOO++XXooooXXXXXXXXXX  OOOOOOO",
"OOOOOOOXXoo..oooooo##oo  OOOOOOO",
"OOOOOOOXXoo..oooooo##oo  OOOOOOO",
"O@@OOOOXXoo..oooooo##oo  OOOO@@O",
"O@@OOOOXXoo..oooooo##oo  +OOO@@O",
"OOO@@OOXXoo..########oo  +O@@OOO",
"OOO@@OOXXoo..########oo  O+@@OOO",
"OOOOO@@XXoooooooooooooo  @@++OOO",
"OOOOO@@XXoooooooooooooo  @@OO++O",
"OOOOO$$@@XXooXXooXXoo  @@$$OOOO+",
"+OOOO$$@@XXooXXooXXoo  @@$$OOOOO",
"+OOOOOO$$XXooXXooXXoo  $$OOOOOOO",
"O+OOOOO$$XXooXXooXXoo  $$OOOOOOO",
"O+OOOOOOO@@XXoooooo  @@OOOOOOOOO",
"OO+OOOOOO@@XXoooooo  @@OOOOOOOOO",
"OOO++OOOOOO@@XXoo  @@OOOOOOOOOOO",
"OOOOO++OOOO@@XXoo  @@++OOOOOOOOO"
};
