/* XPM */
static char *_b9f08a24b224125ab0cc53951f863e9ezvEBAPUF68DX0cj[] = {
/* columns rows colors chars-per-pixel */
"32 32 155 2 ",
"   c black",
".  c #0F0502",
"X  c #261202",
"o  c #381D0E",
"O  c #3C1F11",
"+  c #3E2106",
"@  c #070D24",
"#  c #241620",
"$  c #192222",
"%  c #1D3B3F",
"&  c #472708",
"*  c #472616",
"=  c #552E1C",
"-  c #663A10",
";  c #442434",
":  c #492734",
">  c #542E33",
",  c #5D3433",
"<  c #673A24",
"1  c #653933",
"2  c #6C3D32",
"3  c #784515",
"4  c #76432A",
"5  c #7A452C",
"6  c #754231",
"7  c #7C4631",
"8  c #7D4832",
"9  c #162048",
"0  c #1D2756",
"q  c #2A3666",
"w  c #293672",
"e  c #2E3D7E",
"r  c #7E605C",
"t  c #7E5164",
"y  c #795375",
"u  c #42797E",
"i  c #657471",
"p  c #874F19",
"a  c #95571D",
"s  c #824A2F",
"d  c #95572F",
"f  c #9A5A2F",
"g  c #854C30",
"h  c #8C5130",
"j  c #8A543B",
"k  c #925430",
"l  c #9F5D30",
"z  c #A15E2F",
"x  c #A25F30",
"c  c #A96321",
"v  c #A6612F",
"b  c #AC652E",
"n  c #B56B25",
"m  c #B46A2E",
"M  c #BA6E2E",
"N  c #BE712D",
"B  c #A66232",
"V  c #C3742C",
"C  c #C8772D",
"Z  c #CD7A2C",
"A  c #D27D2C",
"S  c #D27F34",
"D  c #834E44",
"F  c #905D47",
"G  c #805058",
"H  c #8A6C57",
"J  c #906D5B",
"K  c #AA7254",
"L  c #815764",
"P  c #887165",
"I  c #9E7D73",
"U  c #AF746D",
"Y  c #C07F57",
"T  c #D2803A",
"R  c #998B7C",
"E  c #AE8270",
"W  c #B78C7A",
"Q  c #D28447",
"!  c #D2864C",
"~  c #D28750",
"^  c #D28B5B",
"/  c #D29067",
"(  c #D2926B",
")  c #CD9372",
"_  c #D29878",
"`  c #314186",
"'  c #33448B",
"]  c #354690",
"[  c #3A4D9D",
"{  c #3C4FA0",
"}  c #3F53A9",
"|  c #5F559A",
" . c #775784",
".. c #73598E",
"X. c #715A96",
"o. c #715C9B",
"O. c #447D82",
"+. c #4256AE",
"@. c #465CBA",
"#. c #695EA9",
"$. c #6C6CA6",
"%. c #6361B5",
"&. c #6062B9",
"*. c #6977BC",
"=. c #4B62C5",
"-. c #4E66CC",
";. c #5965C5",
":. c #5367CC",
">. c #5374CF",
",. c #567CCF",
"<. c #5068D0",
"1. c #5372D0",
"2. c #6F6BC3",
"3. c #667ECD",
"4. c #488388",
"5. c #77919D",
"6. c #6A96A0",
"7. c #5CA5AC",
"8. c #75AAAF",
"9. c #73B1B7",
"0. c #5685C7",
"q. c #5885CF",
"w. c #5D93CE",
"e. c #5F9ACD",
"r. c #609ECD",
"t. c #6A99CF",
"y. c #6880D0",
"u. c #738DD0",
"i. c #61A1CD",
"p. c #64A9CC",
"a. c #6BAACD",
"s. c #6EBFC6",
"d. c #68B5CB",
"f. c #6BBBCB",
"g. c #6DC2CA",
"h. c #848E80",
"j. c #C99F8D",
"k. c #D29D82",
"l. c #D2A28B",
"z. c #D2A693",
"x. c #D2AA99",
"c. c #8799D2",
"v. c #94A5D2",
"b. c #A3B4D3",
"n. c #8BCBCC",
"m. c #90CDCD",
"M. c #A8D5CF",
"N. c #AECAD1",
"B. c #B8C9D4",
"V. c #AFD8D0",
"C. c #BAD9D1",
"Z. c #C1D1D4",
"A. c #D7E3CC",
"S. c #CFE7D4",
"D. c #DDEDD5",
/* pixels */
"<.<.<.<.<.<.<.y.<.<.<.<.<.<.<.<.<.<.<.<.<.<.<.y.<.<.<.<.<.<.<.<.",
"<.<.<.<.<.<.<.<.3.<.<.<.<.<.<.<.b.<.<.c.<.<.1.<.y.<.<.<.<.<.<.<.",
"<.<.<.<.<.<.<.<.t.p.<.q.w.<.,.Z.D.B.Z.D.v.a.d.<.a.r.<.<.<.<.<.<.",
"<.<.<.<.<.<.<.<.f.g.i.f.f.w.f.m.S.n.C.A.R 9.f.5.g.g.*.<.<.<.<.<.",
"<.<.<.<.<.<.<.<.q.a.<.i.p.<.d.8.5.s.9.J g J P g 5.P s %.<.<.<.<.",
"<.<.<.<.<.<.<.<.<.<.y.<.<.<.$.g s R g g z Z V f Z b d Y 2.<.<.<.",
"<.<.<.<.<.<.<.<.<.<.<.y.y.o.g g b A b c A A N v A A A A U 1.<.<.",
"<.<.<.<.<.<.<.<.<.<.<.<. .g g m A A A A A m g g V A A n X ` 3.<.",
"<.<.<.<.<.<.<.<.<.<.;.y g h V A A m A A m g g m A A A V o u i.y.",
"y.<.<.<.<.<.<.<.<.&.G g k C A C 7 ; m A C h M A S c V A H s.g.q.",
"y.<.<.<.<.<.:.:.#.g g z Z A N 1 ; > 7 V A Z A A z g d a   O.r.:.",
"<.y.<.<.<.<.<.#.g g b A A m ; : g B g h Z A Z f g h V n $ 7.e.<.",
"<.y.<.<.<.<...g g m A A Z 1 ; k Z A z g f Z A b f Z A V i g.f.>.",
"<.<.y.<.:.y g g M A A ! A M x A A A A k g B A A A A n &   6.,.<.",
"<.<.<.*.L g k V A T k.x.! B v A A A A C h g ~ A A n     h.D.b.<.",
"<.<.%.D h f Z A ~ l.x.x.j.j g b A A A A m W x.( A V & 4.M.D.B.<.",
":.#.g g B A A ^ x.x.l.l.z.j.g g M A A T k.x.x./ A A H g.g.N.1.:.",
"X.g g b A A ( x.x.k.A Q z.x.W g g N ! l.x.z.^ A A 3   u C.D.v.:.",
"g g M A A ) x.x.) A Z A ^ z.x.E g B l.x.l.! A V -   % 7.V.D.v.<.",
"o.V A A h r x.( A A m C Z / x.x.K A ~ _ S A n &   q 0.g.f.u.<.<.",
"t m A Z 2 ; F A A M g d A A ) I : N A A A c     e y.<.e.1.<.<.<.",
"g 4 n A m : ; l A A f V A A k ; ; b A A a     ] <.<.t.g.r.<.<.<.",
"|   X b h 6 ; ; b A A A C 8 ; ; B A A p     { <.<.<.w.g.a.<.<.<.",
"<.`   o s g 2 ; ; M A M 1 ; > 7 h V 3   @ +.<.<.<.<.<.r.<.y.y.<.",
"<.<.w   * g g 1 ; , v : ; , g g 4 +   0 @.<.<.<.<.<.p.g.w.<.<.y.",
"y.<.=.0   = g g , ; ; ; 1 g h < .   w -.<.<.<.<.<.<.e.f.q.:.<.<.",
"y.<.<.@.@   < s g > ; 2 g g <     ' <.<.<.<.<.<.<.<.<.>.<.<.<.<.",
"<.y.<.<.+.    < g s 4 g g =     [ y.<.<.<.<.<.<.<.<.<.<.<.<.<.<.",
"<.y.<.<.:.{     4 s s s *     } <.y.<.<.<.<.<.<.<.<.<.<.<.<.<.<.",
"<.<.y.<.<.<.' * s s 5 O   9 @.<.<.<.y.<.<.<.<.<.<.<.<.<.<.<.<.<.",
"<.<.<.y.y.<.<. .g y #   q =.<.<.<.<.<.3.y.<.<.<.<.<.<.<.<.<.<.<.",
"<.<.<.<.<.y.3.:.#.<.+.e <.<.<.<.<.<.<.<.<.y.y.<.<.<.<.<.<.<.<.<."
};
