/* XPM */
static char *Ym9hdF9yaWdodA__[] = {
/* columns rows colors chars-per-pixel */
"32 32 12 1 ",
"  c #140C1C",
". c #442434",
"X c #30346D",
"o c #4E4A4E",
"O c #854C30",
"+ c #D27D2C",
"@ c #D04648",
"# c #5068D0",
"$ c #6880D0",
"% c #6DC2CA",
"& c #D2AA99",
"* c #DEEED6",
/* pixels */
"#######$###############$########",
"########$###############$#######",
"########$###############$#######",
"#########$###############$######",
"#########$###############$######",
"##########$###############$#####",
"######OOoo..$##############$$###",
"######OOoo..#$$##############$$#",
"##OOOOOOOO......######@@..  ###$",
"$#OOOOOOOO......$#####@@..  ####",
"$#OO&&++OOXXXX..$###OOOOOOOOOO  ",
"#$OO&&++OOXXXX..#$##OOOOOOOOOO  ",
"#$OO++++OOoooo..#$OO&&&&++++OO  ",
"##OO++++OOoooo..##OO&&&&++++OO  ",
"OOOOOOOOOOOOOOOOOO++++++++OOoo  ",
"OOOOOOOOOOOOOOOOOO++++++++OOoo  ",
"OO&&&&&&&&&&++++++++++++OOoo  ##",
"OO&&&&&&&&&&++++++++++++OOoo  ##",
"##OO++++++++++++++++++OOoo  ####",
"##OO++++++++++++++++++OOoo  ####",
"##**OOOOOOOOOOOOoo  oo    **####",
"##**OOOOOOOOOOOOoo  oo    **####",
"####****%%****%%****%%%%**#$$###",
"####****%%****%%****%%%%**###$$#",
"###############$###############$",
"$###############$###############",
"$###############$###############",
"#$###############$##############",
"#$###############$##############",
"##$###############$#############",
"###$$##############$$###########",
"#####$$##############$$#########"
};
