/* XPM */
static char *d2FsbA__[] = {
/* columns rows colors chars-per-pixel */
"32 32 13 1 ",
"  c #404868",
". c #606078",
"X c #284088",
"o c #385098",
"O c #4058B8",
"+ c #5068D0",
"@ c #6880D0",
"# c #808088",
"$ c #88A0D8",
"% c #98B0D8",
"& c #A8C0E0",
"* c #B8C8E0",
"= c #D8E0E8",
/* pixels */
"@$&+++++++++++++@$&+++++++++++++",
"+@@$&$+++++++++++@@$&$++++++++++",
"+++@@&&+++OOOO++++O@@&&+++++++++",
"+++++@&$oXoXoXoXoXoXo@&$O+++++++",
"+++++@$&ooooooooooooo@$&XO++++++",
"+++OoX@$oooooooooooooo@$oXXoO+++",
"++OoXo@$oooooooooooooo@$oooXoO++",
"+OoXXoo@&oooooooooooooo@&ooXXoO+",
"+oXXXooo@$&ooooo%%%%oooo@$&XXXO+",
"OXXXooooo@@$&$%%****#oooo@@$&$XO",
"OXXXooooooo@@%*****%#.ooooo@@&&O",
"OXXXooooooo%#******###ooooooX@&$",
"OXXXooooo=#%#*****%**%.oooooX@$&",
"OXXXoooo=.%%%****#****.=ooooXX@$",
"+XXXoooo=#%%%#*#%****# .ooooXX@$",
"&oXXXooo.%%%%##%%%**#  .oooXXXO@",
"@$&XXooo=#%%   #%%%#   =oooXXXO+",
"O@@$&$oo.%##    #%#   ..ooooXXXO",
"OXX@@&&o=## ..  ###  ..=ooooXXXO",
"OXXXo@&$=#.......## ...=ooooXXXO",
"OXXXo@$&o=...  ###.. .=&ooooXXXO",
"OXXXoo@$o==  . ##.# .==$ooooXXXO",
"+XXXoo@$oo==.. ##.# ==@$ooooXXX+",
"+oXXXoo@&ooo===..===ooo@&ooXXXO+",
"+OXXXooo@$&ooooooooooooo@$&XXXO+",
"+OoXXXooo@@$&$ooooooooooo@@$&$O+",
"++OXXXXXooo@@&&oooooooooXXX@@&&+",
"++OoXXXXXXooo@&$XXooooXXXXXXo@&$",
"+++OOXXXXXXXX@$&XXXXXXXXXXXOO@$&",
"++++OOOoXXXXXX@$XXXXXXXXoOOO++@$",
"++++++OOXXXXXX@$XXXXXXXXOO++++@$",
"&+++++++OOooooO@&OooooOO+++++++@"
};
