/* XPM */
static char *_d0f9bc1ea954c7ce2cb041e7acd83b7iKGI7c9r5dF9txo8[] = {
/* columns rows colors chars-per-pixel */
"192 32 14 1 ",
"  c #282828",
". c #C83010",
"X c #F87030",
"o c #388038",
"O c #F8C820",
"+ c #004080",
"@ c #3860A8",
"# c #4850D0",
"$ c #5068D0",
"% c #50B090",
"& c #6880D0",
"* c #7890F8",
"= c #88D0F8",
"- c #F8F8F8",
/* pixels */
"$$$$$$$&$$$$$$$$$$$$$$$&$$$$$$$$$$$$$$$&$$$$$$$$$$$$$$$&$$$$$$$$$$$$$$$&$$$$$$$$$$$$$$$&$$$$$$$$$$$$$$$&$$$$$$$$$$$$$$$&$$$$$$$$$$$$$$$&$$$$$$$  $$$$$$&$$$$$$$$$$$$$$$&$$$$$$$  $$$$$$&$$$$$$$$",
"$$$$$$$$&$$$$$$$$$$$$$$$&$$$$$$$$$$$$$$$&$$$$$$$$$$$$$$$&$$$$$$$$$$$$$$$&$$$====**$$$$$$&$$$$$$$$$$$$$$$&$$$$$$$$$$$$$$$&$$$$$$$$$    $$&$$$$$ .. $$$$$$&$    $$$$$$$$$$&$$$$$ .. $$$$$$&$$$$$$$",
"$$$$$$$$&$$$$$**====$$$$&$$$$$$$$$$$$$$$&$$$$----***$$$$&$$$$$$$$$$$$$$$*==$$$**==**$$$$&$$$$$$$$$$$$$$$&$$$$$$$$$$$$$$$&$$$$$$$$ OOOO  &$$$$ .... $$$$$  OOOO $$$     $&$$$$ XOOX $$$$$&     $$",
"$$$$$$$$$&$$**==**$$$==*$&$$$$$$$$$$$$$$$**---****++**--$&$$$$$$$$$$$$*=*++**$$$**=**$*$=&$$$$$$$$$$$$$$$&$$***----$$$$$$&$$$$$$$$  XXOO &$$$ X..X $$$$ OOXX  $$$ XXOOO  &$   .XX.   $$  OOOXX $",
"$$$$$$$=$*$**=**$$$**++*=*$$$$$$$$$$$$$$$&$$$$$*****++==-&$$$$$$$$$$$***+++----*+++****$*&$$$$$$$$$$$$$$--**++****---**$$&$$$$$$$$$   XOX $   XXXX   $ XOX   $$$$$    XOX  oo% ..      XOX    $$",
"$$$$$$=*$****+++*----+++***$$$$$$$$$$$==*$&===*==*****++=-&$$$$$$$$$*=-+***++=*+---++=*$+$&$$$$$$$$$$$$-==++*****$$$$$$$$$&$$$$$$$$ X. XXX oo XOOX oo XXX .X $$$$$$ .. X  o  o%   --    X .. $$$",
"$$$$$=*+**=++---+*=++***+-=*&$$$$$$$$=**+==*****---**+**+=-&&$$$$$$$=-+******==***=-*=$*$$=&&$$$$$$$$$-=++*****==*===$$*==$&&$$$$$$ XX. XX oo XXXX oo XX .XX $$$$    ..  %o--  oo---- %  ..    $",
"$$$$$=+=**=*-=***==******+-=$&&$$$$$=*-+****--****---*+=*$$$$&&$$$$=-+**=++---***-*=**=*$$*$$&&$$$$$$-=+**+**---*****==+**=$$&&$$$$ XX..  ooo .XX. ooo  ..XX &&$ OOOX   o%o----oo- --o%o   XOOO ",
"$$$$$*+**=**=*-***---++=**+-=$$&$$$=*-+=+---=++====----+=**$$$$&$$$=-*===--****----+*$=$$*$$$$$&$$$$$$$*=+*---****--****+-*=$$$&$     .. o%%o .... o%%o ..     &$   XXX %%oo        oo%% XXX   &",
"&$$$*+***==*+----****--===*-=$$$&$$*-+*=---==*=====*----=**$$$$$&$$$=*==--+**-----=-$+$$$*+$$$$$&$$$$**=+----====++=---+=+-*=$$$ OOOOX   o%  o .. o  %o   XOOOO & X. X o%o  XXXXXXXX  o%o X .X $",
"&$$$*+**=*+*-=-----**+--==*=$$$$&$$*-+=------==--**--=---**$$$$$&$$$==*--+**-==--=**$*$$=$=$*$$$&$$$$**=----*=====*==---=*+-*$$$&   XXXX o    o  o    o XXXX   $&$ X.  oo XXXXXXXXXXXX oo  .X $$",
"$&$**=+=*+*=**=--==-**+--*==$$$$$&=***---*-----**-=*=-=--=$*$$$$$&$$===--+*=---=--*$$=+*$+$*$$$$$&$$$**---=--**--==------=+-*$$$$ ..  X oo %% oooo %% oo X  .. $$& ..  o .XXXX....XXXX. o  .. $$",
"$&$**=+=*+=***--=---=*+--===$$$$$&=**=--*---=---**=-===---$*$=$$$&$$$=--+**=----=*=$$=*-$+*$$$$$$&$$*$=--=-=*=-**-----*---***=$$$& X.. o%oooo%oooo%oooo%o ..X $$$& . X  .XX..........XX.  X . $$",
"$$&=**+=-*=*==*=----=**+--=$$$$$$$=+*--=*--=---#-**--=-=--$$$=$$$$&$==--+*-*=-***=*=$$-*-$*$=$$$$$=$*$---===-=**---=---*--=**=$$$$& X. o%%   o%oo%o   %%o .X $$$$ . X   .X..        ..X.   X . $",
"$$$=***-*-*==*=***-=*-*+--==$$$$$$=+*--=*-*=*-#  #**---=--$$$$$$$$$=*---+*-*=-#  #--&$$=$-$==$$$$$=&&$--=-=--**-#---=--*=--*+=$$$$$ .  o%%o-  oooo  -o%%o  . $$$$  O   ...    ----    ...   O  $",
"$$$==*--==*=--#  #-=*-*+---*=$$$$$$=*--=+--=*-    #--=*=--*=$$$$$$$=*--=+--=*-    #--&*=--$=$$$$$$$$$&--=---**#  #-*=*-*=--*+=$$$$ . X  o%o--- oo ---o%o  X . $$$ O $& ...            ... $$ O $",
"$$$$=*--=*=--#    -*=--+=--*=$$$$$$=*---+*-*=-#  #--=*==--*==$$$$$=+*--=*-*=*-#  #**-$-=-$$$$$$$$$$$=*--=*=--#    -*=--+=--*=$$$$$  X    oo%---oo---%oo    X  $$$$ $$$ ..              .. $$$ $$",
"$$$$$$--=---**#  #-*=*-*=--*+=$$$$$$==--+*-*=-***=*==*-*-***=$$$$$=+*--=*--=---#-**--=-=--$$$$$$$$$==*--==*=--#  #-=*-*+---*=$$$$$ O   ..  o%--oo--%o  ..   O $$$$$$$$ ..              .. $$$$$$",
"$$=$$$--=-=--**-#---=--*=--*+=$$$$$$$=--+**=----=*==*=*-=+**=$$$$$=**=--*---=---**=-===---$*$$$$$$$=***-*-*==*=***-=*-*+--==$$$$$$ O $ ..XX          XX.. $ O $$$$$$$$  .              .  $$$$$$",
"$$=$*$---===-=**---=---*--=**=$$$$$$===--+*=---=--***=+*=+=**$$$$$=***---*-----**-=*$-=--=$*$$$$$$$=**+=-*=*==*=----=**+--=$$$$$$$$ $$ ...XXXXXXXXXXXX... $$ $$$$$$$$                      $$$$$",
"$$$$*$=--=-=*=-**-----*---***=$$$$$$==*--+**-==--=**=*+*=+=**$$$$$$*-+=------==--**-$=---**$$$$$$$$**=+=*+=***--=---=*+--===$$$$$$$$$$  ...-.XXXXXX.-...  $$$$$$$$$$ oo    -        -    oo $$$$",
"$$$$$**---=--**--==------=+-*$$$$$$$=*==--+**-----=-*+*=**+*$$$$$$$*-+*=---==*=====*-$$-=**$$$$$$$$**=+=*+*=**=--==-**+--*==$$$$$$$$$ o  ..--......--..  o $$$$$$$$ o%o .  --      --  . o%o $$$",
"$$$$$**=----*=====*==---=*+-*$$$$$$=-*===--****----+*==***+*&$$$$$$=*-+=+---=++====--$$+=**&&$$$$$$$*+**=*+*-=-----**+--==*=&$$$$$$$ ooo   ---    ---   ooo &$$$$$$-%%oo . ---    --- . oo%%-$$$",
"$$$$$**=+----====++=---+=+-*=&&$$$$=-+**=++---***-*=**=**+*$$&&$$$$$=*-+****--****---$$=*$$$$&&$$$$$*+***==*+----****--===*-=&&$$$$- o%oo . --    -- . oo%o -&&$$$-o%%%o .. --    -- .. o%%%o-&$",
"$$$$$$$*=+*---****--****+-*=$$$&$$$$=-+******==***=-*=**=+=$$$$&$$$$$=**+==*****---**+*$+=$$$$$&$$$$$*+**=**=*-***---++=**+-=$$&$$--o%%%o ..  .XX.  .. o%%%o--$&$$--o%o o ..  .XX.  .. o o%o--$&",
"&$$$$-=+**+**---*****==+**=$$$$$&$$$*=-+***++=*+---++=**+*=$$$$$&$$$$$==*$$===*==*****++$$$$$$$$&$$$$=+=**=*-=***==******+-=$$$$&$--o%%%oo  ........  oo%%%o--$$&$$- -   o  ........  o   - -$$$",
"&$$$$$-=++*****==*===$$*==$$$$$$&$$$$***+++----*+++****$*=$$$$$$&$$$$$$$$$$$$$$*****++==-$$$$$$$&$$$$=*+**=++---+*=++***+-=*$$$$&$$- o-o ooo        ooo o-o -$$$&$-@--  oooo        oooo  --@-$$",
"$&$$$$$-==++*****&$$$$$$$$$$$$$$$&$$$$*=*++**$$$**=**$*$=$$$$$$$$&$$$$$$$**---****++**--$$$$$$$$$&$$$$=*$****+++*----+++***$$$$$$&$-@-  ooo%%%%%%%%%%ooo  -@-$$$$&$-@-- -o%%oooooooo%%o- --@-$$$",
"$&$$$$$$--**++****---**$$$$$$$$$$&$$$$$$*==$$$**==**$$$$$$$$$$$$$&$$$$$$$$$$$----***$$$$$$$$$$$$$&$$$$$=$*$**=**$&$**++*=*$$$$$$$&$$--@  o%%%%-%%-%%%%o  @--$$$$$&$$-$-@-   %--%%--%   -@-$-$$$$",
"$$&$$$$$$$$$***----$$$$$$$$$$$$$$$&$$$$$$$$$====**&$$$$$$$$$$$$$$$&$$$$$$$$$$$$$$$&$$$$$$$$$$$$$$$&$$$$$$$$$**==**&$$==*$$$$$$$$$$&$$--@--  --------  --@--$$$$$$$&$$$$-@-$$ ------ $$-@-$$$$$$$",
"$$$&&$$$$$$$$$$$$$$&&$$$$$$$$$$$$$$&&$$$$$$$$$$$$$$&&$$$$$$$$$$$$$$&&$$$$$$$$$$$$$$&&$$$$$$$$$$$$$$&&$$$$$$$$$**====&$$$$$$$$$$$$$$&&$-----@--    --@-----$$$$$$$$$&&$$---$---$$$$---$---$$$$$$$",
"$$$$$&&$$$$$$$$$$$$$$&&$$$$$$$$$$$$$$&&$$$$$$$$$$$$$$&&$$$$$$$$$$$$$$&&$$$$$$$$$$$$$$&&$$$$$$$$$$$$$$&&$$$$$$$$$$$$$$&&$$$$$$$$$$$$$$&&$$---$$-$$-$$---$$$$$$$$$$$$$$&&$$$$$$$$$$$$$$&&$$$$$$$$$"
};
